<?xml version="1.0" standalone="no"?>
<svg version="1.0" xmlns="http://www.w3.org/2000/svg"
 viewBox="557 423 956 498"
 preserveAspectRatio="xMidYMid meet">

<rect width="2000" height="1500" fill="none"/>

<g transform="translate(0.000000,1500.000000) scale(0.100000,-0.100000)"
fill="#000000" stroke="none">
<path d="M9106 10525 c-154 -32 -311 -101 -444 -195 -382 -270 -687 -842 -763
-1434 -18 -144 -7 -352 25 -460 51 -170 145 -331 273 -467 51 -54 85 -78 161
-117 164 -84 352 -144 557 -178 138 -24 387 -23 520 0 361 65 679 261 932 576
117 146 170 267 215 495 32 158 32 433 -1 585 -72 337 -216 601 -476 869 -172
178 -306 252 -565 312 -114 26 -340 34 -434 14z m68 -362 c3 -32 8 -173 12
-314 l6 -256 -73 -12 c-41 -7 -136 -15 -211 -18 l-138 -6 0 231 0 232 51 40
c71 56 160 104 249 134 41 14 80 26 87 26 6 0 13 -24 17 -57z m456 -4 c41 -16
96 -43 123 -59 l47 -30 0 -158 c0 -175 -6 -228 -26 -236 -20 -8 -263 -31 -268
-25 -2 2 -7 127 -11 278 l-8 273 34 -7 c19 -4 68 -20 109 -36z m529 -556 c140
-280 173 -570 99 -875 l-21 -88 -79 0 c-179 0 -374 -35 -494 -90 l-62 -28 -56
18 c-295 98 -685 7 -1066 -250 -50 -33 -95 -58 -101 -54 -25 15 -109 160 -140
241 -33 86 -34 91 -34 243 1 120 6 180 23 266 37 185 121 426 201 579 l26 50
6 -100 c6 -115 26 -165 84 -213 55 -45 100 -54 269 -53 233 2 430 28 530 70
29 12 73 18 146 20 110 2 244 14 344 32 176 31 266 106 266 221 0 42 9 88 16
88 2 0 21 -35 43 -77z m-165 -1304 c-30 -34 -173 -142 -241 -183 -238 -142
-553 -186 -867 -120 -90 19 -179 44 -189 54 -10 9 119 85 218 128 248 108 451
117 628 27 43 -22 79 -34 91 -31 12 3 46 22 76 42 30 20 74 46 98 56 42 19
147 46 186 47 19 1 19 1 0 -20z"/>
<path d="M6140 10483 c-210 -20 -270 -27 -374 -44 l-121 -21 -82 -75 -83 -75
0 -1189 0 -1189 215 0 215 0 2 1128 3 1127 95 18 c65 12 150 19 270 20 155 2
184 -1 260 -21 287 -79 534 -295 671 -587 72 -154 109 -337 109 -547 0 -217
-31 -376 -105 -534 -74 -160 -168 -275 -275 -336 -142 -82 -343 -78 -607 13
-64 22 -119 36 -122 31 -3 -5 -44 -61 -90 -126 -46 -64 -82 -118 -80 -120 38
-27 251 -100 368 -127 115 -26 342 -36 463 -19 521 70 850 492 884 1135 19
352 -66 686 -243 953 -187 282 -493 487 -833 556 -150 30 -393 43 -540 29z"/>
<path d="M11170 8480 l0 -540 40 0 40 0 0 540 0 540 -40 0 -40 0 0 -540z"/>
<path d="M11855 9008 c-42 -22 -45 -36 -45 -189 0 -81 3 -155 6 -164 16 -41
122 -58 208 -33 75 23 136 109 136 193 0 84 -61 170 -136 193 -51 15 -142 15
-169 0z m162 -45 c52 -24 87 -84 87 -148 0 -97 -69 -165 -167 -165 -72 0 -77
10 -77 165 0 108 3 137 16 149 21 21 96 21 141 -1z"/>
<path d="M12795 9008 c-42 -22 -45 -36 -45 -189 0 -81 3 -155 6 -164 16 -41
122 -58 208 -33 75 23 136 109 136 193 0 84 -61 170 -136 193 -51 15 -142 15
-169 0z m162 -45 c52 -24 87 -84 87 -148 0 -97 -69 -165 -167 -165 -72 0 -77
10 -77 165 0 108 3 137 16 149 21 21 96 21 141 -1z"/>
<path d="M12376 8996 c-44 -17 -91 -58 -114 -101 -21 -40 -20 -141 1 -181 76
-146 294 -150 369 -5 36 69 36 121 1 192 -21 40 -39 60 -70 77 -54 29 -135 37
-187 18z m146 -48 c54 -31 82 -80 82 -143 0 -63 -28 -112 -82 -143 -51 -28
-100 -28 -142 1 -111 75 -111 209 0 285 42 28 91 28 142 0z"/>
<path d="M13316 8996 c-44 -17 -91 -58 -114 -101 -21 -40 -20 -141 1 -181 76
-146 294 -150 369 -5 36 69 36 121 1 192 -21 40 -39 60 -70 77 -54 29 -135 37
-187 18z m146 -48 c54 -31 82 -80 82 -143 0 -63 -28 -112 -82 -143 -51 -28
-100 -28 -142 1 -111 75 -111 209 0 285 42 28 91 28 142 0z"/>
<path d="M11810 8142 c0 -238 -8 -227 167 -227 107 0 128 2 128 15 0 12 -20
16 -112 18 -75 2 -115 7 -122 16 -6 7 -12 80 -13 182 -3 167 -3 169 -25 172
l-23 3 0 -179z"/>
<path d="M12326 8308 c-3 -7 -10 -31 -17 -53 -6 -22 -41 -95 -75 -162 -68
-130 -80 -183 -44 -183 13 0 24 10 30 28 6 15 18 44 27 65 l16 38 91 -3 91 -3
24 -62 c18 -46 30 -63 43 -63 10 0 21 6 24 13 7 19 -28 105 -82 198 -26 44
-54 106 -63 137 -13 45 -22 58 -39 60 -12 2 -24 -3 -26 -10z m57 -168 c15 -28
27 -52 27 -55 0 -3 -27 -5 -60 -5 l-60 0 27 55 c15 30 30 55 33 55 3 0 17 -23
33 -50z"/>
<path d="M14116 8308 c-3 -7 -10 -31 -17 -53 -6 -22 -41 -95 -75 -162 -68
-130 -80 -183 -44 -183 13 0 24 10 30 28 6 15 18 44 27 65 l16 38 91 -3 91 -3
24 -62 c18 -46 30 -63 43 -63 10 0 21 6 24 13 7 19 -28 105 -82 198 -26 44
-54 106 -63 137 -13 45 -22 58 -39 60 -12 2 -24 -3 -26 -10z m57 -168 c15 -28
27 -52 27 -55 0 -3 -27 -5 -60 -5 l-60 0 27 55 c15 30 30 55 33 55 3 0 17 -23
33 -50z"/>
<path d="M12627 8304 c-4 -4 -7 -95 -7 -201 l0 -194 23 3 c22 3 22 6 27 165
l5 163 109 -165 c97 -147 111 -165 136 -165 48 0 51 13 48 211 -3 182 -3 184
-25 187 -22 3 -23 3 -25 -165 l-3 -168 -110 165 c-98 148 -113 165 -140 168
-17 2 -34 0 -38 -4z"/>
<path d="M13165 8295 c-125 -44 -162 -224 -66 -325 53 -55 125 -72 215 -49 77
19 116 71 116 155 l0 45 -97 -3 c-79 -2 -98 -6 -98 -18 0 -12 16 -16 73 -18
68 -3 72 -4 72 -26 0 -49 -70 -106 -130 -106 -153 0 -209 211 -80 297 59 40
152 21 187 -38 11 -19 26 -29 40 -29 60 0 -8 98 -82 119 -53 14 -101 13 -150
-4z"/>
<path d="M13520 8178 c0 -119 3 -139 23 -178 31 -62 74 -85 159 -85 138 0 185
83 176 310 -3 74 -5 80 -25 83 -23 3 -23 1 -23 -97 0 -55 -5 -123 -11 -150
-20 -96 -108 -139 -186 -91 -51 30 -58 53 -63 200 -5 131 -6 135 -27 138 -23
3 -23 3 -23 -130z"/>
<path d="M14505 8295 c-125 -44 -162 -224 -66 -325 53 -55 125 -72 215 -49 77
19 116 71 116 155 l0 45 -97 -3 c-79 -2 -98 -6 -98 -18 0 -12 16 -16 73 -18
68 -3 72 -4 72 -26 0 -49 -70 -106 -130 -106 -153 0 -209 211 -80 297 59 40
152 21 187 -38 11 -19 26 -29 40 -29 60 0 -8 98 -82 119 -53 14 -101 13 -150
-4z"/>
<path d="M14890 8281 l-30 -29 0 -142 0 -142 30 -29 29 -30 113 3 c93 2 113 6
113 18 0 12 -19 16 -100 18 -124 3 -135 11 -135 94 l0 58 100 0 c93 0 100 1
100 20 0 19 -7 20 -100 20 l-100 0 0 48 c0 71 15 81 130 84 77 2 95 6 95 18 0
12 -20 16 -108 18 -108 3 -108 3 -137 -27z"/>
<path d="M5812 7038 c-7 -7 -12 -43 -12 -90 l0 -78 -123 0 c-82 0 -127 -4
-135 -12 -7 -7 -12 -39 -12 -73 0 -34 5 -66 12 -73 8 -8 53 -12 135 -12 l123
0 0 -70 0 -70 -163 0 c-113 0 -167 -4 -175 -12 -17 -17 -16 -132 1 -147 9 -7
93 -12 237 -13 l223 -3 -99 -83 c-54 -45 -159 -124 -231 -175 -115 -79 -132
-95 -130 -117 2 -24 5 -25 85 -28 l82 -3 0 -207 c0 -196 1 -210 23 -252 26
-52 59 -78 113 -90 55 -13 482 -12 544 1 28 6 65 23 82 37 55 46 58 66 58 355
0 253 -1 264 -22 307 -16 32 -36 52 -68 70 -40 22 -60 25 -179 28 l-133 4 78
79 79 79 136 0 c119 0 138 2 152 18 20 22 23 122 5 140 -7 7 -42 12 -85 12
-40 0 -73 2 -73 4 0 2 21 40 47 83 25 43 65 119 89 168 l43 90 1 -730 c0 -555
3 -734 12 -743 7 -7 45 -12 98 -12 122 0 120 -4 120 201 l1 164 30 -59 31 -59
101 5 c125 6 208 38 263 102 111 129 74 401 -83 607 -28 37 -53 71 -57 77 -3
6 20 59 53 119 95 175 124 249 118 301 -9 79 -71 136 -161 147 -30 4 -132 5
-227 4 -169 -4 -175 -5 -221 -31 -27 -16 -52 -40 -60 -58 -14 -33 -23 -37 -32
-15 -4 12 -26 15 -109 15 l-104 0 -28 -67 c-34 -83 -45 -96 -45 -57 0 46 -15
54 -107 54 l-83 0 0 73 c0 99 -9 107 -121 107 -53 0 -90 -5 -97 -12z m1169
-212 c-16 -39 -116 -237 -159 -310 l-40 -70 61 -67 c123 -132 182 -270 175
-405 -3 -69 -6 -79 -31 -100 -26 -22 -37 -24 -127 -24 -69 0 -100 -4 -103 -12
-3 -7 -6 218 -6 500 l-1 512 120 0 120 0 -9 -24z m-811 -133 c0 -5 -19 -36
-42 -70 -35 -52 -48 -63 -70 -63 -28 0 -28 0 -28 70 l0 70 70 0 c39 0 70 -3
70 -7z m50 -713 l0 -70 -180 0 -180 0 0 70 0 70 180 0 180 0 0 -70z m-2 -312
l-3 -73 -175 0 -175 0 -3 73 -3 72 181 0 181 0 -3 -72z"/>
<path d="M8323 7032 c-9 -16 -4 -34 33 -105 24 -48 59 -110 79 -139 l35 -53
-89 -6 c-143 -11 -198 -37 -232 -113 -15 -33 -19 -66 -19 -172 0 -88 4 -134
12 -142 8 -8 46 -12 103 -12 57 0 95 4 103 12 8 8 12 49 12 119 0 78 4 110 14
118 9 8 183 10 632 9 l619 -3 3 -114 c1 -64 8 -121 14 -128 16 -20 201 -18
218 2 8 10 11 53 8 148 -3 127 -4 136 -31 176 -40 60 -107 89 -225 97 -51 4
-92 8 -92 9 0 1 22 35 48 76 27 41 65 103 85 139 51 93 44 100 -99 100 l-109
-1 -58 -103 c-33 -57 -79 -129 -103 -160 -37 -46 -50 -56 -75 -56 -25 0 -29 3
-24 19 4 13 -12 46 -50 105 -31 47 -67 110 -81 141 l-25 55 -110 0 c-108 0
-109 0 -115 -25 -7 -28 52 -161 106 -242 17 -24 30 -46 30 -49 0 -2 -52 -4
-116 -4 -113 0 -116 1 -111 21 4 14 -7 37 -34 72 -21 29 -60 91 -85 140 l-45
87 -107 0 c-93 0 -109 -2 -119 -18z"/>
<path d="M14152 7038 c-17 -17 -15 -36 13 -96 14 -30 25 -56 25 -58 0 -2 -174
-5 -387 -6 l-388 -3 0 -80 0 -80 890 0 890 0 3 68 c2 42 -2 74 -9 83 -9 12
-74 14 -374 14 -293 0 -365 3 -374 14 -6 7 -24 44 -39 82 l-29 69 -104 3 c-73
2 -108 -1 -117 -10z"/>
<path d="M10918 6962 c-104 -56 -107 -65 -45 -139 23 -29 57 -78 76 -110 19
-32 40 -68 48 -80 19 -33 41 -29 138 24 59 32 85 52 85 65 0 10 -37 64 -81
120 -45 57 -91 117 -103 135 -11 18 -23 33 -26 32 -3 0 -44 -21 -92 -47z"/>
<path d="M11328 6996 c-15 -11 -18 -29 -18 -98 0 -59 4 -89 13 -97 10 -8 62
-8 187 -1 96 5 176 8 178 6 2 -2 -2 -32 -9 -66 l-12 -63 -129 7 c-94 5 -133 4
-144 -5 -18 -15 -20 -169 -2 -187 8 -8 45 -9 124 -5 l112 6 -16 -79 -17 -79
-160 0 c-88 0 -166 -4 -172 -8 -9 -6 -13 -37 -13 -98 0 -64 3 -89 13 -90 85
-4 1309 1 1317 6 16 10 13 170 -4 184 -10 9 -51 10 -145 5 l-131 -7 5 29 c3
16 12 91 20 168 11 103 13 142 4 152 -9 11 -52 12 -229 7 l-218 -6 13 62 c7
34 16 65 19 68 4 4 122 2 264 -4 177 -8 261 -8 270 -1 8 7 12 40 12 98 0 58
-4 91 -12 98 -9 7 -52 7 -138 0 -123 -10 -889 -5 -940 7 -14 3 -33 -1 -42 -9z
m777 -563 c-11 -112 3 -103 -156 -103 -129 0 -140 1 -135 18 2 9 10 44 16 77
7 33 14 63 17 68 2 4 63 7 134 7 l131 0 -7 -67z"/>
<path d="M13517 6592 c-12 -13 -17 -37 -17 -79 0 -102 -77 -93 812 -93 889 0
808 -10 808 97 0 102 77 93 -812 93 -738 0 -776 -1 -791 -18z"/>
<path d="M10720 6496 c-14 -14 -13 -169 2 -184 8 -8 47 -12 110 -12 l98 0 0
-327 c0 -310 -2 -329 -20 -353 -11 -14 -20 -33 -20 -43 0 -23 120 -157 140
-157 22 0 380 352 380 373 0 10 -11 34 -25 55 -13 20 -29 51 -35 68 -16 45
-48 52 -79 16 -13 -15 -46 -52 -72 -82 l-49 -55 1 290 c0 160 4 313 9 340 13
82 20 80 -219 81 -131 0 -214 -3 -221 -10z"/>
<path d="M8428 6469 c-14 -8 -18 -24 -18 -77 0 -40 5 -73 12 -80 9 -9 110 -12
392 -12 208 0 377 -3 373 -6 -3 -3 -72 -34 -154 -68 l-148 -62 -3 -52 -3 -52
-378 0 c-280 0 -380 -3 -389 -12 -16 -16 -16 -140 0 -156 9 -9 109 -12 390
-12 l378 0 0 -140 0 -140 -140 0 c-131 0 -140 -1 -150 -21 -13 -24 -6 -38 61
-113 l43 -48 141 4 c126 4 145 7 184 29 86 47 100 89 101 292 l0 137 378 0
c436 0 412 -5 412 91 0 30 -5 60 -12 67 -9 9 -110 12 -392 12 -223 0 -376 4
-370 9 5 5 63 32 129 60 202 87 268 122 293 161 42 62 16 135 -63 178 -27 15
-87 17 -540 19 -340 2 -516 -1 -527 -8z"/>
<path d="M13512 6308 c-7 -7 -12 -39 -12 -73 0 -104 -77 -95 812 -95 738 0
776 1 791 18 19 21 23 111 7 143 -10 19 -30 19 -798 19 -600 0 -791 -3 -800
-12z"/>
<path d="M11457 6053 c-4 -3 -7 -128 -8 -277 0 -149 -4 -295 -8 -324 -10 -73
2 -82 111 -82 104 0 118 11 118 88 l0 52 245 0 245 0 0 -33 c0 -18 5 -38 12
-45 17 -17 208 -17 209 1 4 41 -4 603 -8 614 -4 11 -90 13 -457 13 -249 0
-456 -3 -459 -7z m703 -278 l0 -95 -245 0 -245 0 0 95 0 95 245 0 245 0 0 -95z"/>
<path d="M13628 6030 c-47 -14 -85 -48 -102 -90 -12 -32 -16 -77 -16 -208 0
-154 2 -171 23 -212 16 -33 34 -51 67 -67 l44 -23 658 0 c717 0 699 -1 759 56
42 40 51 92 47 275 -3 187 -11 210 -82 251 l-41 23 -665 2 c-366 1 -677 -2
-692 -7z m1242 -295 c0 -121 -1 -125 -22 -130 -13 -3 -264 -4 -558 -3 l-535 3
-3 128 -3 127 561 0 560 0 0 -125z"/>
</g>
</svg>