<svg
  xmlns="http://www.w3.org/2000/svg"
  viewBox="58 45 484 240"
  preserveAspectRatio="xMidYMid meet"
  role="img"
  aria-label="DODO Learning"
>
<g transform="translate(0,350) scale(0.1,-0.1)" fill="#000000" stroke="none">
<path d="M2350 3006 c-401 -113 -693 -785 -488 -1125 85 -141 184 -201 408
-247 365 -74 751 156 826 492 55 251 -26 517 -220 722 -133 140 -354 206 -526
158z m73 -298 l5 -147 -27 -5 c-14 -3 -61 -8 -104 -11 l-78 -7 3 118 3 119 50
33 c49 32 138 66 142 53 1 -3 3 -72 6 -153z m253 112 l44 -22 0 -98 0 -97 -31
-7 c-17 -3 -51 -6 -74 -6 l-43 0 -1 134 -2 135 32 -9 c17 -5 51 -19 75 -30z
m270 -399 c18 -79 15 -241 -4 -292 -10 -25 -15 -26 -102 -33 -56 -4 -117 -16
-157 -31 -51 -18 -71 -21 -86 -13 -97 52 -337 -2 -499 -112 -69 -48 -74 -46
-113 34 -36 74 -45 137 -34 234 9 84 64 268 98 331 l18 34 5 -57 c4 -48 10
-63 37 -89 l32 -32 127 2 c85 1 145 7 182 18 30 9 105 21 165 25 199 14 253
44 256 142 1 49 53 -62 75 -161z m-161 -517 c-143 -123 -411 -170 -578 -101
l-32 14 73 37 c139 70 255 82 344 36 l40 -21 52 31 c50 28 125 52 136 42 3 -2
-13 -19 -35 -38z"/>
<path d="M945 2994 c-203 -19 -252 -33 -303 -87 l-22 -23 2 -575 3 -574 105 1
105 0 0 546 0 547 25 5 c258 57 486 -45 593 -264 122 -248 64 -595 -117 -701
-64 -38 -189 -37 -288 0 -68 26 -64 27 -113 -44 -45 -65 -49 -60 62 -97 342
-115 632 35 714 372 21 82 18 318 -5 400 -90 332 -392 528 -761 494z"/>
<path d="M3380 2025 l0 -265 25 0 25 0 0 265 0 265 -25 0 -25 0 0 -265z"/>
<path d="M3707 2273 c-23 -26 -25 -154 -1 -177 54 -54 172 16 161 96 -10 78
-114 131 -160 81z m104 -32 c53 -43 17 -135 -50 -129 -35 3 -36 4 -39 52 -6
95 29 126 89 77z"/>
<path d="M4168 2279 c-28 -16 -26 -174 1 -189 69 -36 151 15 151 95 0 80 -86
133 -152 94z m99 -41 c50 -47 17 -128 -52 -128 l-35 0 0 68 c0 38 3 72 7 75
14 14 58 6 80 -15z"/>
<path d="M3942 2255 c-36 -30 -47 -66 -32 -110 35 -107 200 -78 200 35 0 88
-100 133 -168 75z m116 -28 c30 -27 29 -71 -3 -102 -46 -47 -115 -15 -115 54
0 73 62 98 118 48z"/>
<path d="M4389 2249 c-22 -24 -29 -41 -29 -71 0 -117 177 -137 206 -24 25 101
-106 171 -177 95z m120 -12 c61 -50 3 -157 -69 -127 -58 24 -66 76 -20 121 30
31 55 32 89 6z"/>
<path d="M3690 1861 c0 -113 8 -123 94 -119 77 4 76 21 -1 28 l-58 5 -3 88
c-2 68 -6 87 -17 87 -12 0 -15 -18 -15 -89z"/>
<path d="M3912 1865 c-47 -96 -52 -116 -35 -122 7 -2 19 12 27 31 22 53 84 53
109 1 17 -36 37 -47 37 -20 0 8 -15 47 -34 87 -19 40 -37 81 -40 91 -10 32
-23 18 -64 -68z m62 -11 c9 -23 8 -24 -14 -24 -11 0 -20 2 -20 4 0 12 13 36
20 36 4 0 11 -7 14 -16z"/>
<path d="M4810 1937 c0 -7 -18 -50 -40 -96 -22 -45 -38 -87 -34 -92 10 -18 24
-9 38 26 13 31 19 35 54 35 34 0 40 -4 55 -35 9 -19 21 -35 27 -35 18 0 10 34
-20 88 -16 29 -34 68 -40 87 -11 34 -40 49 -40 22z m30 -87 c9 -18 8 -20 -15
-20 -23 0 -24 2 -15 20 6 11 13 20 15 20 2 0 9 -9 15 -20z"/>
<path d="M4087 1933 c-12 -25 -1 -188 13 -188 11 0 16 17 20 73 l5 72 48 -76
c67 -105 81 -100 85 29 2 82 0 97 -13 97 -12 0 -15 -14 -15 -77 l0 -78 -51 78
c-47 70 -79 95 -92 70z"/>
<path d="M4325 1917 c-70 -60 -25 -172 69 -172 54 0 86 25 89 71 2 28 1 29
-45 29 -44 0 -70 -18 -30 -21 9 -1 23 -2 30 -3 19 -2 14 -29 -7 -41 -34 -18
-68 -12 -91 17 -55 70 33 161 95 99 29 -29 45 -33 45 -12 0 50 -109 74 -155
33z"/>
<path d="M4522 1864 c3 -69 6 -79 31 -100 45 -38 113 -27 136 23 17 38 14 153
-4 153 -12 0 -15 -14 -15 -63 0 -79 -18 -109 -63 -105 -41 4 -57 35 -57 111 0
46 -3 57 -16 57 -14 0 -16 -11 -12 -76z"/>
<path d="M4977 1920 c-80 -63 -14 -195 88 -176 86 16 99 110 14 104 -46 -3
-54 -23 -10 -23 31 -1 39 -24 15 -42 -30 -22 -70 -16 -94 14 -55 70 33 161 95
99 29 -29 45 -33 45 -12 0 49 -106 73 -153 36z"/>
<path d="M5180 1921 c-18 -35 -13 -146 8 -164 25 -23 132 -24 132 -2 0 10 -15
15 -57 17 -55 3 -58 4 -61 31 -3 26 -2 27 47 27 39 0 51 4 51 15 0 11 -12 15
-50 15 -41 0 -50 3 -50 18 0 29 21 42 67 42 24 0 43 5 43 10 0 20 -118 12
-130 -9z"/>
<path d="M787 1324 c-4 -4 -7 -25 -7 -46 l0 -38 -65 0 -65 0 0 -40 0 -40 65 0
65 0 0 -35 0 -35 -85 0 -85 0 0 -40 0 -40 118 0 117 -1 -40 -35 c-22 -19 -75
-58 -117 -87 -86 -58 -91 -71 -30 -75 l42 -3 0 -110 c0 -158 1 -159 194 -159
138 0 146 1 172 23 l28 24 -3 143 c-1 79 -6 151 -11 161 -13 24 -63 39 -129
39 l-55 0 39 40 c37 37 41 39 109 42 l71 3 0 35 c0 33 -2 35 -36 40 l-37 5 44
80 44 80 0 -357 0 -358 55 0 55 0 0 88 c1 83 2 86 16 60 31 -58 174 -26 208
46 34 71 10 188 -55 269 l-31 39 47 92 c74 144 54 179 -107 184 -118 5 -142 0
-174 -35 -13 -14 -24 -21 -24 -14 0 7 -19 11 -49 11 -48 0 -49 -1 -67 -42 -15
-36 -18 -39 -22 -20 -3 19 -10 22 -47 22 l-44 0 -3 43 -3 42 -45 3 c-25 2 -49
0 -53 -4z m524 -191 l-50 -97 31 -35 c45 -51 78 -128 78 -182 0 -57 -14 -70
-80 -77 l-50 -5 0 247 0 246 61 0 60 0 -50 -97z m-351 18 c0 -16 -41 -61 -56
-61 -9 0 -14 11 -14 35 0 33 2 35 35 35 19 0 35 -4 35 -9z m30 -341 l0 -40
-90 0 -90 0 0 40 0 40 90 0 90 0 0 -40z m-2 -152 l-3 -33 -87 -3 -88 -3 0 36
0 35 91 0 90 0 -3 -32z"/>
<path d="M2000 1313 c0 -10 18 -46 40 -80 l39 -63 -55 0 c-87 0 -116 -34 -112
-132 l3 -73 52 -3 52 -3 3 63 3 63 305 0 305 0 5 -60 5 -60 55 0 55 0 0 72 c0
97 -24 125 -114 131 l-60 4 46 68 c53 81 51 90 -26 90 l-58 0 -19 -42 c-38
-85 -104 -151 -104 -104 0 7 -16 40 -35 72 -19 32 -35 61 -35 66 0 11 -108 10
-115 -2 -6 -10 25 -77 57 -122 l19 -28 -60 0 c-53 0 -61 2 -61 19 0 10 -6 23
-13 29 -7 6 -24 34 -37 62 l-23 50 -59 0 c-49 0 -58 -3 -58 -17z"/>
<path d="M4827 1318 c-2 -7 2 -25 10 -40 l13 -28 -187 -2 -188 -3 0 -40 0 -40
433 -3 432 -2 0 45 0 45 -184 0 -184 0 -16 40 c-16 40 -16 40 -70 40 -34 0
-56 -5 -59 -12z"/>
<path d="M3263 1287 c-48 -23 -54 -44 -22 -73 12 -10 30 -36 40 -56 10 -20 23
-40 29 -43 12 -8 100 41 100 56 0 8 -99 140 -103 138 -1 0 -21 -10 -44 -22z"/>
<path d="M3453 1294 c-2 -7 -3 -29 -1 -50 l3 -39 94 4 94 3 -6 -23 c-4 -13 -7
-27 -7 -31 0 -5 -32 -8 -71 -8 l-70 0 3 -47 3 -48 58 4 58 3 -6 -28 c-4 -16
-8 -34 -10 -41 -3 -8 -33 -13 -87 -15 l-83 -3 0 -44 0 -43 325 0 325 -1 1 39
c2 56 -7 62 -80 57 l-63 -5 9 67 c15 113 20 108 -106 106 l-109 -2 7 23 c3 13
6 27 6 32 0 5 57 7 134 3 l134 -5 4 37 c6 71 26 66 -279 66 -198 0 -277 -3
-280 -11z m387 -273 l0 -39 -65 -4 c-84 -4 -84 -4 -73 42 l10 40 64 0 64 0 0
-39z"/>
<path d="M4519 1103 c0 -5 -2 -18 -3 -30 -5 -45 -7 -45 395 -45 l384 0 3 41 3
41 -390 0 c-215 0 -391 -3 -392 -7z"/>
<path d="M3164 1055 c-3 -7 -4 -30 -2 -51 l3 -39 53 3 53 3 -4 -163 c-2 -90
-6 -172 -10 -183 -5 -15 2 -30 26 -59 l33 -38 92 90 c102 101 100 97 71 146
-26 44 -27 44 -62 1 -47 -59 -50 -50 -46 132 l4 166 -103 2 c-77 2 -105 -1
-108 -10z"/>
<path d="M2057 1043 c-4 -3 -7 -21 -7 -40 l0 -33 192 0 c106 0 188 -4 183 -8
-6 -5 -40 -22 -77 -37 -56 -23 -68 -32 -68 -51 l0 -24 -192 -2 -193 -3 0 -40
0 -40 193 -3 192 -2 0 -65 c0 -45 -4 -65 -12 -66 -7 -1 -39 0 -70 1 -69 2 -81
-13 -47 -59 22 -30 26 -31 95 -31 123 0 144 21 144 145 l0 75 192 2 c211 3
209 2 193 65 l-6 26 -185 -7 c-101 -4 -184 -3 -184 1 0 4 44 26 96 48 102 42
122 62 111 108 -11 42 -41 47 -301 47 -133 0 -246 -3 -249 -7z"/>
<path d="M4520 966 c-11 -11 -13 -37 -4 -60 5 -14 50 -16 396 -16 l389 0 -3
41 -3 41 -383 1 c-231 1 -387 -2 -392 -7z"/>
<path d="M3525 840 c-2 -3 -5 -77 -6 -165 l-3 -160 55 0 c54 0 54 0 57 33 l3
32 119 0 c115 0 119 -1 122 -22 3 -20 9 -23 53 -23 48 0 50 1 49 28 0 15 -1
85 -2 156 l-2 128 -221 -1 c-121 0 -222 -3 -224 -6z m343 -126 l-3 -45 -120
-2 -120 -2 -3 33 c-6 61 -4 62 128 62 l121 0 -3 -46z"/>
<path d="M4565 829 c-39 -22 -45 -40 -45 -139 0 -158 -18 -152 407 -148 391 4
366 -6 371 142 4 87 2 95 -21 122 l-25 29 -334 2 c-230 2 -339 -1 -353 -8z
m615 -139 l0 -60 -270 0 -270 0 0 60 0 60 270 0 270 0 0 -60z"/>
</g>
</svg>