<?xml version="1.0" standalone="no"?>
<!DOCTYPE svg PUBLIC "-//W3C//DTD SVG 20010904//EN"
 "http://www.w3.org/TR/2001/REC-SVG-20010904/DTD/svg10.dtd">
<svg version="1.0" xmlns="http://www.w3.org/2000/svg"
 width="600.000000pt" height="350.000000pt" viewBox="0 0 600.000000 350.000000"
 preserveAspectRatio="xMidYMid meet">
<g transform="translate(0.000000,350.000000) scale(0.100000,-0.100000)"
fill="#000000" stroke="none">
<path d="M0 1750 l0 -1750 3000 0 3000 0 0 1750 0 1750 -3000 0 -3000 0 0
-1750z m2612 1251 c275 -70 484 -357 496 -678 8 -223 -36 -342 -177 -483 -219
-217 -494 -274 -806 -168 -130 45 -196 97 -263 209 -113 188 -76 507 93 792
164 278 397 394 657 328z m-1382 -28 c228 -54 412 -236 476 -473 23 -82 26
-318 5 -400 -82 -337 -372 -487 -714 -372 -111 37 -107 32 -62 97 49 71 45 70
113 44 99 -37 224 -38 288 0 181 106 239 453 117 701 -107 219 -335 321 -593
264 l-25 -5 0 -547 0 -546 -105 0 -105 -1 -3 574 -2 575 22 23 c51 54 100 68
303 87 68 6 217 -4 285 -21z m2200 -948 l0 -265 -25 0 -25 0 0 265 0 265 25 0
25 0 0 -265z m407 233 c66 -66 18 -178 -75 -178 -60 0 -72 18 -72 102 0 92 15
112 79 105 28 -3 52 -13 68 -29z m433 17 c94 -49 53 -195 -55 -195 -57 0 -65
13 -65 105 0 106 37 133 120 90z m-189 -24 c64 -64 20 -171 -71 -171 -51 0
-86 22 -100 65 -34 103 94 182 171 106z m453 2 c31 -30 41 -62 32 -99 -29
-113 -206 -93 -206 24 0 90 111 138 174 75z m-812 -390 l3 -88 58 -5 c77 -7
78 -24 1 -28 -86 -4 -94 6 -94 119 0 71 3 89 15 89 11 0 15 -19 17 -87z m254
70 c3 -10 21 -51 40 -91 19 -40 34 -79 34 -87 0 -27 -20 -16 -37 20 -25 52
-87 52 -109 -1 -15 -35 -42 -43 -36 -11 5 29 84 187 94 187 5 0 11 -8 14 -17z
m874 -18 c6 -19 24 -58 40 -87 30 -54 38 -88 20 -88 -6 0 -18 16 -27 35 -15
31 -21 35 -55 35 -35 0 -41 -4 -54 -35 -14 -35 -28 -44 -38 -26 -4 5 12 47 34
92 22 46 40 89 40 96 0 27 29 12 40 -22z m-671 -52 l51 -78 0 78 c0 63 3 77
15 77 13 0 15 -15 13 -97 -4 -129 -18 -134 -85 -29 l-48 76 -5 -72 c-4 -56 -9
-73 -20 -73 -14 0 -25 163 -13 188 13 25 45 0 92 -70z m275 56 c25 -20 35 -49
16 -49 -5 0 -21 12 -35 26 -62 62 -150 -29 -95 -99 23 -29 57 -35 91 -17 21
12 26 39 7 41 -7 1 -21 2 -30 3 -40 3 -14 21 30 21 46 0 47 -1 45 -29 -6 -77
-109 -100 -165 -37 -80 90 41 215 136 140z m96 -36 c0 -76 16 -107 57 -111 45
-4 63 26 63 105 0 49 3 63 15 63 18 0 21 -115 4 -153 -23 -50 -91 -61 -136
-23 -34 30 -50 176 -19 176 13 0 16 -11 16 -57z m554 36 c25 -20 35 -49 16
-49 -5 0 -21 12 -35 26 -62 62 -150 -29 -95 -99 24 -30 64 -36 94 -14 24 18
16 41 -15 42 -44 0 -36 20 10 23 48 4 65 -9 55 -43 -35 -115 -212 -60 -190 59
13 70 102 100 160 55z m206 11 c0 -5 -19 -10 -43 -10 -46 0 -67 -13 -67 -42 0
-15 9 -18 50 -18 38 0 50 -4 50 -15 0 -11 -12 -15 -51 -15 -49 0 -50 -1 -47
-27 3 -27 6 -28 61 -31 81 -4 82 -32 0 -32 -79 0 -93 15 -93 97 0 93 8 103 80
103 33 0 60 -4 60 -10z m-4422 -647 l3 -43 44 0 c37 0 44 -3 47 -22 4 -19 7
-16 22 20 18 41 19 42 67 42 30 0 49 -4 49 -11 0 -7 11 0 24 14 32 35 56 40
174 35 161 -5 181 -40 107 -184 l-47 -92 31 -39 c65 -81 89 -198 55 -269 -34
-72 -177 -104 -208 -46 -14 26 -15 23 -16 -60 l0 -88 -55 0 -55 0 0 358 0 357
-44 -80 -44 -80 37 -5 c34 -5 36 -7 36 -40 l0 -35 -71 -3 c-68 -3 -72 -5 -109
-42 l-39 -40 55 0 c66 0 116 -15 129 -39 5 -10 10 -82 11 -161 l3 -143 -28
-24 c-26 -22 -34 -23 -172 -23 -193 0 -194 1 -194 159 l0 110 -42 3 c-61 4
-56 17 30 75 42 29 95 68 117 87 l40 35 -117 1 -118 0 0 40 0 40 85 0 85 0 0
35 0 35 -65 0 -65 0 0 40 0 40 65 0 65 0 0 38 c0 49 5 54 60 50 l45 -3 3 -42z
m1252 -3 c13 -28 30 -56 37 -62 7 -6 13 -19 13 -29 0 -17 8 -19 61 -19 l60 0
-19 28 c-32 45 -63 112 -57 122 7 12 115 13 115 2 0 -5 16 -34 35 -66 19 -32
35 -65 35 -72 0 -47 66 19 104 104 l19 42 58 0 c77 0 79 -9 26 -90 l-46 -68
60 -4 c90 -6 114 -34 114 -131 l0 -72 -55 0 -55 0 -5 60 -5 60 -305 0 -305 0
-3 -63 -3 -63 -52 3 -52 3 -3 73 c-4 98 25 132 112 132 l55 0 -39 63 c-56 87
-54 97 18 97 l59 0 23 -50z m2816 10 l16 -40 184 0 184 0 0 -45 0 -45 -432 2
-433 3 0 40 0 40 188 3 187 2 -13 28 c-22 42 -12 52 49 52 54 0 54 0 70 -40z
m-1597 -45 c62 -78 62 -78 6 -110 -50 -30 -58 -28 -84 23 -10 20 -28 46 -40
56 -37 33 -16 63 66 95 0 1 24 -28 52 -64z m653 45 c2 -8 2 -31 0 -51 l-4 -37
-134 5 c-77 4 -134 2 -134 -3 0 -5 -3 -19 -6 -32 l-7 -23 109 2 c126 2 121 7
106 -106 l-9 -67 63 5 c73 5 82 -1 80 -57 l-1 -39 -325 1 -325 0 0 43 0 44 83
3 c54 2 84 7 87 15 2 7 6 25 10 41 l6 28 -58 -3 -58 -4 -3 48 -3 47 70 0 c39
0 71 3 71 8 0 4 3 18 7 31 l6 23 -94 -3 -94 -4 -3 39 c-2 21 -1 43 1 50 7 19
556 16 559 -4z m1286 -221 l-3 -41 -384 0 c-402 0 -400 0 -395 45 1 12 3 25 3
30 1 4 177 7 392 7 l390 0 -3 -41z m-1927 -172 c-4 -182 -1 -191 46 -132 35
43 36 43 62 -1 29 -49 31 -45 -71 -146 l-92 -90 -33 38 c-24 29 -31 44 -26 59
4 11 8 93 10 183 l4 163 -53 -3 -53 -3 -3 39 c-5 63 -5 64 110 61 l103 -2 -4
-166z m-796 141 c14 -6 28 -22 32 -35 11 -46 -9 -66 -111 -108 -52 -22 -96
-44 -96 -48 0 -4 83 -5 184 -1 l185 7 6 -26 c16 -63 18 -62 -193 -65 l-192 -2
0 -75 c0 -124 -21 -145 -144 -145 -69 0 -73 1 -95 31 -34 46 -22 61 47 59 31
-1 63 -2 70 -1 8 1 12 21 12 66 l0 65 -192 2 -193 3 0 40 0 40 193 3 192 2 0
24 c0 19 12 28 68 51 37 15 71 32 77 37 5 4 -77 8 -183 8 l-192 0 0 33 c0 19
3 37 7 40 12 13 490 8 518 -5z m2723 -107 l3 -41 -389 0 c-419 0 -402 -2 -402
49 0 35 17 36 402 34 l383 -1 3 -41z m-1326 -212 c1 -71 2 -141 2 -156 1 -27
-1 -28 -49 -28 -44 0 -50 3 -53 23 -3 21 -7 22 -122 22 l-119 0 -3 -32 c-3
-33 -3 -33 -57 -33 l-55 0 3 160 c1 88 4 162 6 165 2 3 103 6 224 6 l221 1 2
-128z m1305 87 c23 -27 25 -35 21 -122 -5 -148 20 -138 -371 -142 -425 -4
-407 -10 -407 148 0 157 -17 150 398 147 l334 -2 25 -29z"/>
<path d="M2370 2854 c-25 -7 -67 -28 -95 -46 l-50 -33 -3 -119 -3 -118 78 7
c43 3 90 8 104 11 l27 5 -5 147 c-3 81 -5 150 -6 153 -1 4 -22 0 -47 -7z"/>
<path d="M2571 2724 l1 -134 43 0 c23 0 57 3 74 6 l31 7 0 97 0 98 -44 22
c-24 11 -58 25 -75 30 l-32 9 2 -135z"/>
<path d="M2871 2582 c-3 -98 -57 -128 -256 -142 -60 -4 -135 -16 -165 -25 -37
-11 -97 -17 -182 -18 l-127 -2 -32 32 c-27 26 -33 41 -37 89 l-5 57 -18 -34
c-34 -63 -89 -247 -98 -331 -11 -97 -2 -160 34 -234 39 -80 44 -82 113 -34
162 110 402 164 499 112 15 -8 35 -5 86 13 40 15 101 27 157 31 109 8 109 8
117 155 7 113 -12 212 -56 304 -28 57 -29 59 -30 27z"/>
<path d="M2776 1938 c-22 -5 -63 -22 -92 -38 l-52 -31 -40 21 c-89 46 -205 34
-344 -36 l-73 -37 32 -14 c167 -69 435 -22 578 101 46 40 45 46 -9 34z"/>
<path d="M3725 2237 c-4 -13 -5 -46 -3 -73 3 -48 4 -49 39 -52 67 -6 103 86
50 129 -34 27 -79 25 -86 -4z"/>
<path d="M4187 2253 c-4 -3 -7 -37 -7 -75 l0 -68 35 0 c69 0 102 81 52 128
-22 21 -66 29 -80 15z"/>
<path d="M3990 2252 c-77 -25 -59 -152 22 -152 29 0 68 45 68 78 0 42 -54 86
-90 74z"/>
<path d="M4420 2231 c-46 -45 -38 -97 20 -121 72 -30 130 77 69 127 -34 26
-59 25 -89 -6z"/>
<path d="M3946 1854 c-9 -23 -8 -24 14 -24 11 0 20 2 20 4 0 12 -13 36 -20 36
-4 0 -11 -7 -14 -16z"/>
<path d="M4810 1850 c-9 -18 -8 -20 15 -20 23 0 24 2 15 20 -6 11 -13 20 -15
20 -2 0 -9 -9 -15 -20z"/>
<path d="M1240 984 l0 -247 50 5 c66 7 80 20 80 77 0 54 -33 131 -78 182 l-31
35 50 97 50 97 -60 0 -61 0 0 -246z"/>
<path d="M890 1125 c0 -43 20 -46 49 -9 29 37 26 44 -14 44 -33 0 -35 -2 -35
-35z"/>
<path d="M810 810 l0 -40 90 0 90 0 0 40 0 40 -90 0 -90 0 0 -40z"/>
<path d="M810 655 l0 -36 88 3 87 3 3 33 3 32 -90 0 -91 0 0 -35z"/>
<path d="M3702 1020 c-11 -46 -11 -46 73 -42 l65 4 0 39 0 39 -64 0 -64 0 -10
-40z"/>
<path d="M3624 746 c-3 -8 -4 -29 -2 -48 l3 -33 120 2 120 2 3 45 3 46 -121 0
c-94 0 -122 -3 -126 -14z"/>
<path d="M4640 690 l0 -60 270 0 270 0 0 60 0 60 -270 0 -270 0 0 -60z"/>
</g>
</svg>
